<mxfile host="Electron" modified="2025-10-03T05:47:59.522Z" agent="Mozilla/5.0 (Windows NT 10.0; Win64; x64) AppleWebKit/537.36 (KHTML, like Gecko) draw.io/22.1.21 Chrome/120.0.6099.109 Electron/28.1.0 Safari/537.36" etag="hOXZHL7_zOhGCxlfPVMf" version="22.1.21" type="device" pages="4">
  <diagram name="Configure Orders" id="fyl5XdrnMvDzr-4gZ8SZ">
    <mxGraphModel dx="4435" dy="990" grid="1" gridSize="10" guides="1" tooltips="1" connect="1" arrows="1" fold="1" page="1" pageScale="1" pageWidth="850" pageHeight="1100" math="0" shadow="0">
      <root>
        <mxCell id="0" />
        <mxCell id="1" parent="0" />
        <mxCell id="iz0fhqwpLcLDShCO-avn-2" value="&lt;div style=&quot;&quot;&gt;&lt;font style=&quot;font-size: 22px;&quot;&gt;Configuring and Managing Orders&lt;/font&gt;&lt;/div&gt;" style="swimlane;whiteSpace=wrap;html=1;startSize=50;" parent="1" vertex="1">
          <mxGeometry x="-150" y="1120" width="1720" height="1360" as="geometry" />
        </mxCell>
        <mxCell id="iz0fhqwpLcLDShCO-avn-9" style="edgeStyle=orthogonalEdgeStyle;rounded=0;orthogonalLoop=1;jettySize=auto;html=1;exitX=1;exitY=0.5;exitDx=0;exitDy=0;entryX=0;entryY=0.5;entryDx=0;entryDy=0;" parent="iz0fhqwpLcLDShCO-avn-2" source="iz0fhqwpLcLDShCO-avn-7" target="iz0fhqwpLcLDShCO-avn-4" edge="1">
          <mxGeometry relative="1" as="geometry" />
        </mxCell>
        <mxCell id="iz0fhqwpLcLDShCO-avn-10" value="&lt;font style=&quot;font-size: 18px;&quot;&gt;Integration&lt;/font&gt;" style="edgeLabel;html=1;align=center;verticalAlign=middle;resizable=0;points=[];" parent="iz0fhqwpLcLDShCO-avn-9" vertex="1" connectable="0">
          <mxGeometry x="0.025" relative="1" as="geometry">
            <mxPoint as="offset" />
          </mxGeometry>
        </mxCell>
        <mxCell id="iz0fhqwpLcLDShCO-avn-18" style="edgeStyle=orthogonalEdgeStyle;rounded=0;orthogonalLoop=1;jettySize=auto;html=1;exitX=0.5;exitY=1;exitDx=0;exitDy=0;entryX=0;entryY=0.5;entryDx=0;entryDy=0;" parent="iz0fhqwpLcLDShCO-avn-2" source="iz0fhqwpLcLDShCO-avn-7" target="iz0fhqwpLcLDShCO-avn-11" edge="1">
          <mxGeometry relative="1" as="geometry" />
        </mxCell>
        <mxCell id="iz0fhqwpLcLDShCO-avn-21" value="&lt;font style=&quot;font-size: 18px;&quot;&gt;Integration&lt;/font&gt;" style="edgeLabel;html=1;align=center;verticalAlign=middle;resizable=0;points=[];" parent="iz0fhqwpLcLDShCO-avn-18" vertex="1" connectable="0">
          <mxGeometry x="-0.1033" y="-1" relative="1" as="geometry">
            <mxPoint as="offset" />
          </mxGeometry>
        </mxCell>
        <mxCell id="iz0fhqwpLcLDShCO-avn-7" value="&lt;font style=&quot;font-size: 20px;&quot;&gt;Opcenter Connect MOM&lt;/font&gt;" style="swimlane;whiteSpace=wrap;html=1;fillColor=#f8cecc;strokeColor=#b85450;" parent="iz0fhqwpLcLDShCO-avn-2" vertex="1">
          <mxGeometry x="500" y="100" width="290" height="290" as="geometry" />
        </mxCell>
        <mxCell id="iz0fhqwpLcLDShCO-avn-8" value="&lt;ol style=&quot;font-size: 20px;&quot;&gt;&lt;li&gt;&lt;div style=&quot;font-family: &amp;quot;Adobe Clean&amp;quot;, adobe-clean-ux, adobe-clean, &amp;quot;Source Sans Pro&amp;quot;, -apple-system, BlinkMacSystemFont, &amp;quot;Segoe UI&amp;quot;, Roboto, sans-serif, SimSun;&quot;&gt;download requests of Order creations&lt;br&gt;&lt;/div&gt;&lt;/li&gt;&lt;/ol&gt;" style="text;whiteSpace=wrap;html=1;" parent="iz0fhqwpLcLDShCO-avn-7" vertex="1">
          <mxGeometry x="10" y="50" width="270" height="220" as="geometry" />
        </mxCell>
        <mxCell id="iz0fhqwpLcLDShCO-avn-13" style="edgeStyle=orthogonalEdgeStyle;rounded=0;orthogonalLoop=1;jettySize=auto;html=1;exitX=0.5;exitY=1;exitDx=0;exitDy=0;entryX=0.5;entryY=0;entryDx=0;entryDy=0;" parent="iz0fhqwpLcLDShCO-avn-2" source="iz0fhqwpLcLDShCO-avn-4" target="iz0fhqwpLcLDShCO-avn-11" edge="1">
          <mxGeometry relative="1" as="geometry" />
        </mxCell>
        <mxCell id="iz0fhqwpLcLDShCO-avn-14" value="&lt;font style=&quot;font-size: 18px;&quot;&gt;customization&lt;/font&gt;" style="edgeLabel;html=1;align=center;verticalAlign=middle;resizable=0;points=[];" parent="iz0fhqwpLcLDShCO-avn-13" vertex="1" connectable="0">
          <mxGeometry x="-0.0133" y="3" relative="1" as="geometry">
            <mxPoint as="offset" />
          </mxGeometry>
        </mxCell>
        <mxCell id="iz0fhqwpLcLDShCO-avn-31" style="edgeStyle=orthogonalEdgeStyle;rounded=0;orthogonalLoop=1;jettySize=auto;html=1;exitX=1;exitY=0.5;exitDx=0;exitDy=0;entryX=0;entryY=0.5;entryDx=0;entryDy=0;" parent="iz0fhqwpLcLDShCO-avn-2" source="iz0fhqwpLcLDShCO-avn-4" target="iz0fhqwpLcLDShCO-avn-29" edge="1">
          <mxGeometry relative="1" as="geometry" />
        </mxCell>
        <mxCell id="iz0fhqwpLcLDShCO-avn-4" value="&lt;font style=&quot;font-size: 20px;&quot;&gt;Orders&amp;nbsp;&lt;/font&gt;" style="swimlane;whiteSpace=wrap;html=1;" parent="iz0fhqwpLcLDShCO-avn-2" vertex="1">
          <mxGeometry x="950" y="100" width="290" height="290" as="geometry" />
        </mxCell>
        <mxCell id="iz0fhqwpLcLDShCO-avn-5" value="&lt;ol style=&quot;font-size: 20px;&quot;&gt;&lt;li&gt;&lt;div style=&quot;font-family: &amp;quot;Adobe Clean&amp;quot;, adobe-clean-ux, adobe-clean, &amp;quot;Source Sans Pro&amp;quot;, -apple-system, BlinkMacSystemFont, &amp;quot;Segoe UI&amp;quot;, Roboto, sans-serif, SimSun;&quot;&gt;Users can create orders from scratch or by using existing templates&lt;/div&gt;&lt;/li&gt;&lt;li&gt;&lt;div style=&quot;font-family: &amp;quot;Adobe Clean&amp;quot;, adobe-clean-ux, adobe-clean, &amp;quot;Source Sans Pro&amp;quot;, -apple-system, BlinkMacSystemFont, &amp;quot;Segoe UI&amp;quot;, Roboto, sans-serif, SimSun;&quot;&gt;&lt;div&gt;The system supports integration with external systems for order creation&lt;/div&gt;&lt;/div&gt;&lt;/li&gt;&lt;/ol&gt;" style="text;whiteSpace=wrap;html=1;" parent="iz0fhqwpLcLDShCO-avn-4" vertex="1">
          <mxGeometry x="10" y="50" width="270" height="220" as="geometry" />
        </mxCell>
        <mxCell id="iz0fhqwpLcLDShCO-avn-27" style="edgeStyle=orthogonalEdgeStyle;rounded=0;orthogonalLoop=1;jettySize=auto;html=1;exitX=1;exitY=0.5;exitDx=0;exitDy=0;entryX=0;entryY=0.5;entryDx=0;entryDy=0;" parent="iz0fhqwpLcLDShCO-avn-2" source="iz0fhqwpLcLDShCO-avn-11" target="iz0fhqwpLcLDShCO-avn-23" edge="1">
          <mxGeometry relative="1" as="geometry" />
        </mxCell>
        <mxCell id="iz0fhqwpLcLDShCO-avn-28" style="edgeStyle=orthogonalEdgeStyle;rounded=0;orthogonalLoop=1;jettySize=auto;html=1;exitX=1;exitY=0.5;exitDx=0;exitDy=0;entryX=0;entryY=0.5;entryDx=0;entryDy=0;" parent="iz0fhqwpLcLDShCO-avn-2" source="iz0fhqwpLcLDShCO-avn-11" target="iz0fhqwpLcLDShCO-avn-25" edge="1">
          <mxGeometry relative="1" as="geometry" />
        </mxCell>
        <mxCell id="iz0fhqwpLcLDShCO-avn-11" value="&lt;font style=&quot;font-size: 20px;&quot;&gt;Order Operations&lt;/font&gt;" style="swimlane;whiteSpace=wrap;html=1;fillColor=#f8cecc;strokeColor=#b85450;" parent="iz0fhqwpLcLDShCO-avn-2" vertex="1">
          <mxGeometry x="950" y="540" width="290" height="290" as="geometry" />
        </mxCell>
        <mxCell id="iz0fhqwpLcLDShCO-avn-12" value="&lt;ol style=&quot;font-size: 20px;&quot;&gt;&lt;li&gt;&lt;div style=&quot;font-family: &amp;quot;Adobe Clean&amp;quot;, adobe-clean-ux, adobe-clean, &amp;quot;Source Sans Pro&amp;quot;, -apple-system, BlinkMacSystemFont, &amp;quot;Segoe UI&amp;quot;, Roboto, sans-serif, SimSun;&quot;&gt;customization of the solution -&amp;nbsp;Opcenter Execution Process&amp;nbsp; Extensibility Guide&lt;br&gt;&lt;/div&gt;&lt;/li&gt;&lt;/ol&gt;" style="text;whiteSpace=wrap;html=1;" parent="iz0fhqwpLcLDShCO-avn-11" vertex="1">
          <mxGeometry x="10" y="50" width="270" height="220" as="geometry" />
        </mxCell>
        <mxCell id="iz0fhqwpLcLDShCO-avn-17" style="edgeStyle=orthogonalEdgeStyle;rounded=0;orthogonalLoop=1;jettySize=auto;html=1;exitX=1;exitY=0.5;exitDx=0;exitDy=0;entryX=0;entryY=0.5;entryDx=0;entryDy=0;" parent="iz0fhqwpLcLDShCO-avn-2" source="iz0fhqwpLcLDShCO-avn-15" target="iz0fhqwpLcLDShCO-avn-7" edge="1">
          <mxGeometry relative="1" as="geometry" />
        </mxCell>
        <mxCell id="iz0fhqwpLcLDShCO-avn-22" value="&lt;font style=&quot;font-size: 18px;&quot;&gt;Integration&lt;/font&gt;" style="edgeLabel;html=1;align=center;verticalAlign=middle;resizable=0;points=[];" parent="iz0fhqwpLcLDShCO-avn-17" vertex="1" connectable="0">
          <mxGeometry x="-0.1" y="2" relative="1" as="geometry">
            <mxPoint as="offset" />
          </mxGeometry>
        </mxCell>
        <mxCell id="iz0fhqwpLcLDShCO-avn-15" value="&lt;font style=&quot;font-size: 20px;&quot;&gt;ERP&lt;/font&gt;" style="swimlane;whiteSpace=wrap;html=1;fillColor=#f8cecc;strokeColor=#b85450;" parent="iz0fhqwpLcLDShCO-avn-2" vertex="1">
          <mxGeometry x="30" y="100" width="290" height="290" as="geometry" />
        </mxCell>
        <mxCell id="iz0fhqwpLcLDShCO-avn-16" value="&lt;ol style=&quot;font-size: 20px;&quot;&gt;&lt;li&gt;&lt;div style=&quot;font-family: &amp;quot;Adobe Clean&amp;quot;, adobe-clean-ux, adobe-clean, &amp;quot;Source Sans Pro&amp;quot;, -apple-system, BlinkMacSystemFont, &amp;quot;Segoe UI&amp;quot;, Roboto, sans-serif, SimSun;&quot;&gt;external systems&lt;br&gt;&lt;/div&gt;&lt;/li&gt;&lt;/ol&gt;" style="text;whiteSpace=wrap;html=1;" parent="iz0fhqwpLcLDShCO-avn-15" vertex="1">
          <mxGeometry x="10" y="50" width="270" height="220" as="geometry" />
        </mxCell>
        <mxCell id="iz0fhqwpLcLDShCO-avn-23" value="&lt;font style=&quot;font-size: 20px;&quot;&gt;Material Requirements&lt;/font&gt;" style="swimlane;whiteSpace=wrap;html=1;" parent="iz0fhqwpLcLDShCO-avn-2" vertex="1">
          <mxGeometry x="1400" y="540" width="290" height="290" as="geometry" />
        </mxCell>
        <mxCell id="iz0fhqwpLcLDShCO-avn-24" value="&lt;ol style=&quot;font-size: 20px;&quot;&gt;&lt;li&gt;&lt;div style=&quot;font-family: &amp;quot;Adobe Clean&amp;quot;, adobe-clean-ux, adobe-clean, &amp;quot;Source Sans Pro&amp;quot;, -apple-system, BlinkMacSystemFont, &amp;quot;Segoe UI&amp;quot;, Roboto, sans-serif, SimSun;&quot;&gt;&amp;nbsp;specifying the involved Materials&lt;br&gt;&lt;/div&gt;&lt;/li&gt;&lt;/ol&gt;" style="text;whiteSpace=wrap;html=1;" parent="iz0fhqwpLcLDShCO-avn-23" vertex="1">
          <mxGeometry x="10" y="50" width="270" height="220" as="geometry" />
        </mxCell>
        <mxCell id="iz0fhqwpLcLDShCO-avn-25" value="&lt;font style=&quot;font-size: 20px;&quot;&gt;Equipment Requirements&lt;/font&gt;" style="swimlane;whiteSpace=wrap;html=1;" parent="iz0fhqwpLcLDShCO-avn-2" vertex="1">
          <mxGeometry x="1400" y="970" width="290" height="290" as="geometry" />
        </mxCell>
        <mxCell id="iz0fhqwpLcLDShCO-avn-26" value="&lt;ol style=&quot;font-size: 20px;&quot;&gt;&lt;li&gt;&lt;div style=&quot;font-family: &amp;quot;Adobe Clean&amp;quot;, adobe-clean-ux, adobe-clean, &amp;quot;Source Sans Pro&amp;quot;, -apple-system, BlinkMacSystemFont, &amp;quot;Segoe UI&amp;quot;, Roboto, sans-serif, SimSun;&quot;&gt;specifying the involved equipment&lt;br&gt;&lt;/div&gt;&lt;/li&gt;&lt;/ol&gt;" style="text;whiteSpace=wrap;html=1;" parent="iz0fhqwpLcLDShCO-avn-25" vertex="1">
          <mxGeometry x="10" y="50" width="270" height="220" as="geometry" />
        </mxCell>
        <mxCell id="iz0fhqwpLcLDShCO-avn-29" value="&lt;font style=&quot;font-size: 20px;&quot;&gt;Work Order Material Overview&lt;/font&gt;" style="swimlane;whiteSpace=wrap;html=1;" parent="iz0fhqwpLcLDShCO-avn-2" vertex="1">
          <mxGeometry x="1400" y="100" width="290" height="290" as="geometry" />
        </mxCell>
        <mxCell id="iz0fhqwpLcLDShCO-avn-30" value="&lt;ol style=&quot;font-size: 20px;&quot;&gt;&lt;li&gt;&lt;div style=&quot;font-family: &amp;quot;Adobe Clean&amp;quot;, adobe-clean-ux, adobe-clean, &amp;quot;Source Sans Pro&amp;quot;, -apple-system, BlinkMacSystemFont, &amp;quot;Segoe UI&amp;quot;, Roboto, sans-serif, SimSun;&quot;&gt;aggregates the Materials related to the Operations from all the Work Orders created from the selected&lt;br/&gt;Order.&amp;nbsp;&lt;br&gt;&lt;/div&gt;&lt;/li&gt;&lt;/ol&gt;" style="text;whiteSpace=wrap;html=1;" parent="iz0fhqwpLcLDShCO-avn-29" vertex="1">
          <mxGeometry x="10" y="50" width="270" height="220" as="geometry" />
        </mxCell>
      </root>
    </mxGraphModel>
  </diagram>
  <diagram id="j3hzzovpzoXTcBqQyece" name="Configure Work Orders">
    <mxGraphModel dx="2390" dy="2493" grid="1" gridSize="10" guides="1" tooltips="1" connect="1" arrows="1" fold="1" page="1" pageScale="1" pageWidth="850" pageHeight="1100" math="0" shadow="0">
      <root>
        <mxCell id="0" />
        <mxCell id="1" parent="0" />
        <mxCell id="o6Kw2gWn7M88toZYnjxh-1" value="&lt;div style=&quot;&quot;&gt;&lt;font style=&quot;font-size: 22px;&quot;&gt;Configuring and Managing Work Orders&lt;/font&gt;&lt;/div&gt;" style="swimlane;whiteSpace=wrap;html=1;startSize=50;" parent="1" vertex="1">
          <mxGeometry x="30" y="1130" width="1720" height="1360" as="geometry" />
        </mxCell>
        <mxCell id="zDX_-QopAMUAOKhcfRuR-1" style="edgeStyle=orthogonalEdgeStyle;rounded=0;orthogonalLoop=1;jettySize=auto;html=1;exitX=1;exitY=0.5;exitDx=0;exitDy=0;entryX=0;entryY=0.5;entryDx=0;entryDy=0;" parent="o6Kw2gWn7M88toZYnjxh-1" source="o6Kw2gWn7M88toZYnjxh-23" target="U-Btg_3TOZD05B-oR076-1" edge="1">
          <mxGeometry relative="1" as="geometry" />
        </mxCell>
        <mxCell id="zDX_-QopAMUAOKhcfRuR-2" style="edgeStyle=orthogonalEdgeStyle;rounded=0;orthogonalLoop=1;jettySize=auto;html=1;exitX=1;exitY=0.5;exitDx=0;exitDy=0;entryX=0;entryY=0.5;entryDx=0;entryDy=0;" parent="o6Kw2gWn7M88toZYnjxh-1" source="o6Kw2gWn7M88toZYnjxh-23" target="U-Btg_3TOZD05B-oR076-3" edge="1">
          <mxGeometry relative="1" as="geometry" />
        </mxCell>
        <mxCell id="zDX_-QopAMUAOKhcfRuR-3" style="edgeStyle=orthogonalEdgeStyle;rounded=0;orthogonalLoop=1;jettySize=auto;html=1;exitX=1;exitY=0.5;exitDx=0;exitDy=0;entryX=0;entryY=0.5;entryDx=0;entryDy=0;" parent="o6Kw2gWn7M88toZYnjxh-1" source="o6Kw2gWn7M88toZYnjxh-23" target="U-Btg_3TOZD05B-oR076-5" edge="1">
          <mxGeometry relative="1" as="geometry" />
        </mxCell>
        <mxCell id="zDX_-QopAMUAOKhcfRuR-4" style="edgeStyle=orthogonalEdgeStyle;rounded=0;orthogonalLoop=1;jettySize=auto;html=1;exitX=1;exitY=0.5;exitDx=0;exitDy=0;entryX=0;entryY=0.5;entryDx=0;entryDy=0;" parent="o6Kw2gWn7M88toZYnjxh-1" source="o6Kw2gWn7M88toZYnjxh-23" target="U-Btg_3TOZD05B-oR076-7" edge="1">
          <mxGeometry relative="1" as="geometry" />
        </mxCell>
        <mxCell id="zDX_-QopAMUAOKhcfRuR-5" style="edgeStyle=orthogonalEdgeStyle;rounded=0;orthogonalLoop=1;jettySize=auto;html=1;exitX=1;exitY=0.5;exitDx=0;exitDy=0;entryX=0;entryY=0.5;entryDx=0;entryDy=0;" parent="o6Kw2gWn7M88toZYnjxh-1" source="o6Kw2gWn7M88toZYnjxh-23" target="U-Btg_3TOZD05B-oR076-9" edge="1">
          <mxGeometry relative="1" as="geometry" />
        </mxCell>
        <mxCell id="zDX_-QopAMUAOKhcfRuR-6" style="edgeStyle=orthogonalEdgeStyle;rounded=0;orthogonalLoop=1;jettySize=auto;html=1;exitX=1;exitY=0.5;exitDx=0;exitDy=0;entryX=0;entryY=0.5;entryDx=0;entryDy=0;" parent="o6Kw2gWn7M88toZYnjxh-1" source="o6Kw2gWn7M88toZYnjxh-23" target="U-Btg_3TOZD05B-oR076-13" edge="1">
          <mxGeometry relative="1" as="geometry" />
        </mxCell>
        <mxCell id="o6Kw2gWn7M88toZYnjxh-23" value="&lt;font style=&quot;font-size: 20px;&quot;&gt;Work Orders&lt;/font&gt;" style="swimlane;whiteSpace=wrap;html=1;" parent="o6Kw2gWn7M88toZYnjxh-1" vertex="1">
          <mxGeometry x="510" y="80" width="290" height="290" as="geometry" />
        </mxCell>
        <mxCell id="o6Kw2gWn7M88toZYnjxh-24" value="&lt;ol style=&quot;font-size: 20px;&quot;&gt;&lt;li&gt;&lt;div style=&quot;font-family: &amp;quot;Adobe Clean&amp;quot;, adobe-clean-ux, adobe-clean, &amp;quot;Source Sans Pro&amp;quot;, -apple-system, BlinkMacSystemFont, &amp;quot;Segoe UI&amp;quot;, Roboto, sans-serif, SimSun;&quot;&gt;&lt;div style=&quot;font-size: 16px;&quot;&gt;Work Orders can be created from scratch, from a Work Master, or by copying existing Work Orders.&lt;/div&gt;&lt;/div&gt;&lt;/li&gt;&lt;li&gt;&lt;div style=&quot;font-size: 16px;&quot;&gt;&lt;div style=&quot;font-family: &amp;quot;Adobe Clean&amp;quot;, adobe-clean-ux, adobe-clean, &amp;quot;Source Sans Pro&amp;quot;, -apple-system, BlinkMacSystemFont, &amp;quot;Segoe UI&amp;quot;, Roboto, sans-serif, SimSun;&quot;&gt;Users can edit Work Order headers and parameters, including setting state machines and priorities.&lt;/div&gt;&lt;/div&gt;&lt;/li&gt;&lt;/ol&gt;" style="text;whiteSpace=wrap;html=1;" parent="o6Kw2gWn7M88toZYnjxh-23" vertex="1">
          <mxGeometry x="10" y="50" width="270" height="220" as="geometry" />
        </mxCell>
        <mxCell id="U-Btg_3TOZD05B-oR076-1" value="&lt;font style=&quot;font-size: 20px;&quot;&gt;Overview&lt;/font&gt;" style="swimlane;whiteSpace=wrap;html=1;" parent="o6Kw2gWn7M88toZYnjxh-1" vertex="1">
          <mxGeometry x="960" y="80" width="290" height="140" as="geometry" />
        </mxCell>
        <mxCell id="U-Btg_3TOZD05B-oR076-2" value="&lt;span style=&quot;font-size: 16px; font-family: &amp;quot;Adobe Clean&amp;quot;, adobe-clean-ux, adobe-clean, &amp;quot;Source Sans Pro&amp;quot;, -apple-system, BlinkMacSystemFont, &amp;quot;Segoe UI&amp;quot;, Roboto, sans-serif, SimSun; background-color: initial;&quot;&gt;displays the header of Work Order, meaning its main properties;&lt;/span&gt;" style="text;whiteSpace=wrap;html=1;" parent="U-Btg_3TOZD05B-oR076-1" vertex="1">
          <mxGeometry x="10" y="50" width="270" height="60" as="geometry" />
        </mxCell>
        <mxCell id="U-Btg_3TOZD05B-oR076-3" value="&lt;font style=&quot;font-size: 20px;&quot;&gt;Parameters&lt;/font&gt;" style="swimlane;whiteSpace=wrap;html=1;" parent="o6Kw2gWn7M88toZYnjxh-1" vertex="1">
          <mxGeometry x="960" y="250" width="290" height="140" as="geometry" />
        </mxCell>
        <mxCell id="U-Btg_3TOZD05B-oR076-4" value="&lt;font style=&quot;font-size: 15px;&quot;&gt;displays the Parameters associate to the Work Order&lt;/font&gt;" style="text;whiteSpace=wrap;html=1;" parent="U-Btg_3TOZD05B-oR076-3" vertex="1">
          <mxGeometry x="10" y="50" width="270" height="60" as="geometry" />
        </mxCell>
        <mxCell id="U-Btg_3TOZD05B-oR076-5" value="&lt;font style=&quot;font-size: 20px;&quot;&gt;Work Order Operations&lt;/font&gt;" style="swimlane;whiteSpace=wrap;html=1;" parent="o6Kw2gWn7M88toZYnjxh-1" vertex="1">
          <mxGeometry x="960" y="420" width="290" height="140" as="geometry" />
        </mxCell>
        <mxCell id="U-Btg_3TOZD05B-oR076-6" value="&lt;font style=&quot;font-size: 15px;&quot;&gt; the Operations related to the Work Order&lt;/font&gt;" style="text;whiteSpace=wrap;html=1;" parent="U-Btg_3TOZD05B-oR076-5" vertex="1">
          <mxGeometry x="10" y="50" width="270" height="60" as="geometry" />
        </mxCell>
        <mxCell id="U-Btg_3TOZD05B-oR076-7" value="&lt;font style=&quot;font-size: 20px;&quot;&gt;Material Overview&lt;/font&gt;" style="swimlane;whiteSpace=wrap;html=1;" parent="o6Kw2gWn7M88toZYnjxh-1" vertex="1">
          <mxGeometry x="960" y="590" width="290" height="180" as="geometry" />
        </mxCell>
        <mxCell id="U-Btg_3TOZD05B-oR076-8" value="&lt;font style=&quot;font-size: 15px;&quot;&gt; displays all Materials involved in the execution of the Work Order Operations related to the&lt;br/&gt;Work Order&lt;br&gt;use it to review the required and monitor the actually used quantities of Materials&lt;br&gt;&lt;br&gt;&lt;/font&gt;" style="text;whiteSpace=wrap;html=1;" parent="U-Btg_3TOZD05B-oR076-7" vertex="1">
          <mxGeometry x="10" y="50" width="270" height="120" as="geometry" />
        </mxCell>
        <mxCell id="U-Btg_3TOZD05B-oR076-9" value="&lt;font style=&quot;font-size: 20px;&quot;&gt;Work Processes&lt;/font&gt;" style="swimlane;whiteSpace=wrap;html=1;" parent="o6Kw2gWn7M88toZYnjxh-1" vertex="1">
          <mxGeometry x="960" y="800" width="290" height="180" as="geometry" />
        </mxCell>
        <mxCell id="U-Btg_3TOZD05B-oR076-10" value="&lt;font style=&quot;font-size: 15px;&quot;&gt;displays all the Work Processes that have been started from the Process Definitions associated&lt;br/&gt;with the Work Order Operations.&lt;br&gt;&lt;/font&gt;" style="text;whiteSpace=wrap;html=1;" parent="U-Btg_3TOZD05B-oR076-9" vertex="1">
          <mxGeometry x="10" y="50" width="270" height="120" as="geometry" />
        </mxCell>
        <mxCell id="U-Btg_3TOZD05B-oR076-13" value="&lt;font style=&quot;font-size: 20px;&quot;&gt;Production History&lt;/font&gt;" style="swimlane;whiteSpace=wrap;html=1;" parent="o6Kw2gWn7M88toZYnjxh-1" vertex="1">
          <mxGeometry x="960" y="1010" width="290" height="140" as="geometry" />
        </mxCell>
        <mxCell id="U-Btg_3TOZD05B-oR076-14" value="&lt;font style=&quot;font-size: 15px;&quot;&gt; the Production History Records generated for the Work Order&lt;/font&gt;" style="text;whiteSpace=wrap;html=1;" parent="U-Btg_3TOZD05B-oR076-13" vertex="1">
          <mxGeometry x="10" y="50" width="270" height="60" as="geometry" />
        </mxCell>
        <mxCell id="U-Btg_3TOZD05B-oR076-17" style="edgeStyle=orthogonalEdgeStyle;rounded=0;orthogonalLoop=1;jettySize=auto;html=1;exitX=1;exitY=0.5;exitDx=0;exitDy=0;entryX=0;entryY=0.5;entryDx=0;entryDy=0;" parent="o6Kw2gWn7M88toZYnjxh-1" source="U-Btg_3TOZD05B-oR076-15" target="o6Kw2gWn7M88toZYnjxh-23" edge="1">
          <mxGeometry relative="1" as="geometry" />
        </mxCell>
        <mxCell id="U-Btg_3TOZD05B-oR076-18" value="&lt;font style=&quot;font-size: 18px;&quot;&gt;inherit&lt;/font&gt;" style="edgeLabel;html=1;align=center;verticalAlign=middle;resizable=0;points=[];" parent="U-Btg_3TOZD05B-oR076-17" vertex="1" connectable="0">
          <mxGeometry x="-0.1061" y="-2" relative="1" as="geometry">
            <mxPoint as="offset" />
          </mxGeometry>
        </mxCell>
        <mxCell id="U-Btg_3TOZD05B-oR076-15" value="&lt;font style=&quot;font-size: 20px;&quot;&gt;Work Order Template&lt;/font&gt;" style="swimlane;whiteSpace=wrap;html=1;" parent="o6Kw2gWn7M88toZYnjxh-1" vertex="1">
          <mxGeometry x="10" y="80" width="290" height="290" as="geometry" />
        </mxCell>
        <mxCell id="U-Btg_3TOZD05B-oR076-16" value="&lt;ol style=&quot;font-size: 20px;&quot;&gt;&lt;li&gt;&lt;div style=&quot;font-family: &amp;quot;Adobe Clean&amp;quot;, adobe-clean-ux, adobe-clean, &amp;quot;Source Sans Pro&amp;quot;, -apple-system, BlinkMacSystemFont, &amp;quot;Segoe UI&amp;quot;, Roboto, sans-serif, SimSun;&quot;&gt;&lt;div style=&quot;font-size: 16px;&quot;&gt;&amp;nbsp;contain the order state&lt;br/&gt;machine and a set of properties&lt;br&gt;&lt;/div&gt;&lt;/div&gt;&lt;/li&gt;&lt;/ol&gt;" style="text;whiteSpace=wrap;html=1;" parent="U-Btg_3TOZD05B-oR076-15" vertex="1">
          <mxGeometry x="10" y="50" width="270" height="220" as="geometry" />
        </mxCell>
        <mxCell id="U-Btg_3TOZD05B-oR076-19" value="Add Property" style="rounded=0;whiteSpace=wrap;html=1;fillColor=#ffe6cc;strokeColor=#d79b00;" parent="U-Btg_3TOZD05B-oR076-15" vertex="1">
          <mxGeometry x="70" y="190" width="120" height="40" as="geometry" />
        </mxCell>
        <mxCell id="EB1jAQVE1GWUq_00KXg6-1" value="&lt;div style=&quot;&quot;&gt;&lt;h1 style=&quot;margin: 0.5em 0px 0.3em; padding: 0px; border: 0px; font-variant-numeric: inherit; font-variant-east-asian: inherit; font-variant-alternates: inherit; font-variant-position: inherit; font-weight: inherit; font-stretch: inherit; font-size: 24px; line-height: inherit; font-family: &amp;quot;Segoe UI&amp;quot;, &amp;quot;Open Sans&amp;quot;, &amp;quot;Helvetica Neue&amp;quot;, Verdana, Arial, &amp;quot;YU Gothic UI&amp;quot;, &amp;quot;MS PGothic&amp;quot;, &amp;quot;Hiragino Sans&amp;quot;, &amp;quot;Microsoft YaHei&amp;quot;, 微软雅黑, STXihei, 华文细黑, sans-serif; font-optical-sizing: inherit; font-kerning: inherit; font-feature-settings: inherit; font-variation-settings: inherit; vertical-align: baseline; color: rgb(70, 70, 70); text-align: start; background-color: rgb(255, 255, 255);&quot; id=&quot;Work_Order_Management_and_Scheduling_-_Opcenter_EX_PR_Documentation&quot;&gt;Work Order Management&amp;nbsp;&lt;/h1&gt;&lt;/div&gt;" style="swimlane;whiteSpace=wrap;html=1;startSize=50;" vertex="1" parent="1">
          <mxGeometry x="1820" y="1130" width="1720" height="1780" as="geometry" />
        </mxCell>
        <mxCell id="EB1jAQVE1GWUq_00KXg6-24" value="&lt;font style=&quot;font-size: 20px;&quot;&gt;Production Flow&lt;/font&gt;" style="swimlane;whiteSpace=wrap;html=1;startSize=90;" vertex="1" parent="EB1jAQVE1GWUq_00KXg6-1">
          <mxGeometry x="110" y="70" width="1450" height="1610" as="geometry" />
        </mxCell>
        <mxCell id="EB1jAQVE1GWUq_00KXg6-32" style="edgeStyle=orthogonalEdgeStyle;rounded=0;orthogonalLoop=1;jettySize=auto;html=1;exitX=0.5;exitY=1;exitDx=0;exitDy=0;entryX=0.5;entryY=0;entryDx=0;entryDy=0;" edge="1" parent="EB1jAQVE1GWUq_00KXg6-24" source="EB1jAQVE1GWUq_00KXg6-27" target="EB1jAQVE1GWUq_00KXg6-30">
          <mxGeometry relative="1" as="geometry" />
        </mxCell>
        <mxCell id="EB1jAQVE1GWUq_00KXg6-27" value="&lt;font style=&quot;font-size: 20px;&quot;&gt;Work Orders&lt;/font&gt;" style="swimlane;whiteSpace=wrap;html=1;fillColor=#fff2cc;strokeColor=#d6b656;startSize=50;" vertex="1" parent="EB1jAQVE1GWUq_00KXg6-24">
          <mxGeometry x="110" y="140" width="290" height="340" as="geometry" />
        </mxCell>
        <mxCell id="R4H8HQrNvtAMqRPQB2d6-3" style="edgeStyle=orthogonalEdgeStyle;rounded=0;orthogonalLoop=1;jettySize=auto;html=1;exitX=0.5;exitY=1;exitDx=0;exitDy=0;" edge="1" parent="EB1jAQVE1GWUq_00KXg6-27" source="R4H8HQrNvtAMqRPQB2d6-1" target="R4H8HQrNvtAMqRPQB2d6-2">
          <mxGeometry relative="1" as="geometry" />
        </mxCell>
        <mxCell id="R4H8HQrNvtAMqRPQB2d6-1" value="&lt;font style=&quot;font-size: 18px;&quot;&gt;Parameters&lt;/font&gt;" style="rounded=0;whiteSpace=wrap;html=1;fillColor=#ffe6cc;strokeColor=#d79b00;" vertex="1" parent="EB1jAQVE1GWUq_00KXg6-27">
          <mxGeometry x="85" y="90" width="120" height="40" as="geometry" />
        </mxCell>
        <mxCell id="R4H8HQrNvtAMqRPQB2d6-2" value="&lt;ul&gt;&lt;li&gt;&lt;font style=&quot;font-size: 20px;&quot;&gt;e.g., product type, quantity, due date&lt;/font&gt;&lt;br&gt;&lt;/li&gt;&lt;/ul&gt;" style="text;whiteSpace=wrap;html=1;" vertex="1" parent="EB1jAQVE1GWUq_00KXg6-27">
          <mxGeometry x="35" y="160" width="220" height="90" as="geometry" />
        </mxCell>
        <mxCell id="EB1jAQVE1GWUq_00KXg6-30" value="&lt;font style=&quot;font-size: 20px;&quot;&gt;Work Order Operations&lt;/font&gt;" style="swimlane;whiteSpace=wrap;html=1;fillColor=#fff2cc;strokeColor=#d6b656;startSize=50;" vertex="1" parent="EB1jAQVE1GWUq_00KXg6-24">
          <mxGeometry x="110" y="530" width="290" height="370" as="geometry" />
        </mxCell>
        <mxCell id="EB1jAQVE1GWUq_00KXg6-31" value="&lt;ul&gt;&lt;li&gt;&lt;span style=&quot;background-color: initial;&quot;&gt;&lt;font face=&quot;Helvetica&quot; style=&quot;font-size: 23px;&quot;&gt;components of the Work Order&lt;/font&gt;&lt;/span&gt;&lt;/li&gt;&lt;/ul&gt;" style="text;whiteSpace=wrap;html=1;" vertex="1" parent="EB1jAQVE1GWUq_00KXg6-30">
          <mxGeometry y="50" width="270" height="80" as="geometry" />
        </mxCell>
        <mxCell id="R4H8HQrNvtAMqRPQB2d6-10" style="edgeStyle=orthogonalEdgeStyle;rounded=0;orthogonalLoop=1;jettySize=auto;html=1;exitX=0.5;exitY=1;exitDx=0;exitDy=0;" edge="1" parent="EB1jAQVE1GWUq_00KXg6-30" source="R4H8HQrNvtAMqRPQB2d6-8" target="R4H8HQrNvtAMqRPQB2d6-9">
          <mxGeometry relative="1" as="geometry" />
        </mxCell>
        <mxCell id="R4H8HQrNvtAMqRPQB2d6-8" value="&lt;font style=&quot;font-size: 18px;&quot;&gt;Parameters&lt;/font&gt;" style="rounded=0;whiteSpace=wrap;html=1;fillColor=#ffe6cc;strokeColor=#d79b00;" vertex="1" parent="EB1jAQVE1GWUq_00KXg6-30">
          <mxGeometry x="75" y="140" width="120" height="40" as="geometry" />
        </mxCell>
        <mxCell id="R4H8HQrNvtAMqRPQB2d6-9" value="&lt;ul&gt;&lt;li&gt;&lt;font style=&quot;font-size: 20px;&quot;&gt;e.g., machine speed, temperature, material type&lt;/font&gt;&lt;br&gt;&lt;/li&gt;&lt;/ul&gt;" style="text;whiteSpace=wrap;html=1;" vertex="1" parent="EB1jAQVE1GWUq_00KXg6-30">
          <mxGeometry x="7.5" y="250" width="255" height="90" as="geometry" />
        </mxCell>
        <mxCell id="EB1jAQVE1GWUq_00KXg6-33" value="&lt;font style=&quot;font-size: 20px;&quot;&gt;Workflows&lt;/font&gt;" style="swimlane;whiteSpace=wrap;html=1;fillColor=#fff2cc;strokeColor=#d6b656;startSize=50;" vertex="1" parent="EB1jAQVE1GWUq_00KXg6-24">
          <mxGeometry x="590" y="530" width="290" height="290" as="geometry" />
        </mxCell>
        <mxCell id="EB1jAQVE1GWUq_00KXg6-34" value="&lt;ul&gt;&lt;li&gt;&lt;font style=&quot;font-size: 20px;&quot;&gt;defined sequences within each operation&lt;/font&gt;&lt;br&gt;&lt;/li&gt;&lt;/ul&gt;" style="text;whiteSpace=wrap;html=1;" vertex="1" parent="EB1jAQVE1GWUq_00KXg6-33">
          <mxGeometry y="60" width="270" height="220" as="geometry" />
        </mxCell>
        <mxCell id="EB1jAQVE1GWUq_00KXg6-35" value="&lt;font style=&quot;font-size: 20px;&quot;&gt;Tasks&lt;/font&gt;" style="swimlane;whiteSpace=wrap;html=1;fillColor=#fff2cc;strokeColor=#d6b656;startSize=50;" vertex="1" parent="EB1jAQVE1GWUq_00KXg6-24">
          <mxGeometry x="1080" y="540" width="290" height="290" as="geometry" />
        </mxCell>
        <mxCell id="EB1jAQVE1GWUq_00KXg6-36" value="&lt;ul&gt;&lt;li&gt;&lt;font style=&quot;font-size: 20px;&quot;&gt;actual executable actions&lt;/font&gt;&lt;br&gt;&lt;/li&gt;&lt;/ul&gt;" style="text;whiteSpace=wrap;html=1;" vertex="1" parent="EB1jAQVE1GWUq_00KXg6-35">
          <mxGeometry y="60" width="270" height="220" as="geometry" />
        </mxCell>
        <mxCell id="EB1jAQVE1GWUq_00KXg6-37" style="edgeStyle=orthogonalEdgeStyle;rounded=0;orthogonalLoop=1;jettySize=auto;html=1;exitX=1;exitY=0.5;exitDx=0;exitDy=0;entryX=-0.037;entryY=0.364;entryDx=0;entryDy=0;entryPerimeter=0;" edge="1" parent="EB1jAQVE1GWUq_00KXg6-24" source="EB1jAQVE1GWUq_00KXg6-30" target="EB1jAQVE1GWUq_00KXg6-34">
          <mxGeometry relative="1" as="geometry" />
        </mxCell>
        <mxCell id="EB1jAQVE1GWUq_00KXg6-38" style="edgeStyle=orthogonalEdgeStyle;rounded=0;orthogonalLoop=1;jettySize=auto;html=1;exitX=1;exitY=0.5;exitDx=0;exitDy=0;entryX=0.003;entryY=0.333;entryDx=0;entryDy=0;entryPerimeter=0;" edge="1" parent="EB1jAQVE1GWUq_00KXg6-24" source="EB1jAQVE1GWUq_00KXg6-33" target="EB1jAQVE1GWUq_00KXg6-36">
          <mxGeometry relative="1" as="geometry" />
        </mxCell>
        <mxCell id="R4H8HQrNvtAMqRPQB2d6-39" style="edgeStyle=orthogonalEdgeStyle;rounded=0;orthogonalLoop=1;jettySize=auto;html=1;exitX=0.5;exitY=1;exitDx=0;exitDy=0;" edge="1" parent="1" source="R4H8HQrNvtAMqRPQB2d6-11" target="EB1jAQVE1GWUq_00KXg6-1">
          <mxGeometry relative="1" as="geometry" />
        </mxCell>
        <mxCell id="R4H8HQrNvtAMqRPQB2d6-11" value="&lt;div style=&quot;&quot;&gt;&lt;h1 style=&quot;margin: 0.5em 0px 0.3em; padding: 0px; border: 0px; font-variant-numeric: inherit; font-variant-east-asian: inherit; font-variant-alternates: inherit; font-variant-position: inherit; font-weight: inherit; font-stretch: inherit; font-size: 24px; line-height: inherit; font-family: &amp;quot;Segoe UI&amp;quot;, &amp;quot;Open Sans&amp;quot;, &amp;quot;Helvetica Neue&amp;quot;, Verdana, Arial, &amp;quot;YU Gothic UI&amp;quot;, &amp;quot;MS PGothic&amp;quot;, &amp;quot;Hiragino Sans&amp;quot;, &amp;quot;Microsoft YaHei&amp;quot;, 微软雅黑, STXihei, 华文细黑, sans-serif; font-optical-sizing: inherit; font-kerning: inherit; font-feature-settings: inherit; font-variation-settings: inherit; vertical-align: baseline; color: rgb(70, 70, 70); text-align: start; background-color: rgb(255, 255, 255);&quot; id=&quot;Work_Order_Management_and_Scheduling_-_Opcenter_EX_PR_Documentation&quot;&gt;Work Master Management&amp;nbsp;&lt;/h1&gt;&lt;/div&gt;" style="swimlane;whiteSpace=wrap;html=1;startSize=50;" vertex="1" parent="1">
          <mxGeometry x="1975" y="-380" width="1410" height="1280" as="geometry" />
        </mxCell>
        <mxCell id="R4H8HQrNvtAMqRPQB2d6-12" value="&lt;font style=&quot;font-size: 20px;&quot;&gt;scalable template&amp;nbsp;&lt;/font&gt;" style="swimlane;whiteSpace=wrap;html=1;startSize=90;" vertex="1" parent="R4H8HQrNvtAMqRPQB2d6-11">
          <mxGeometry x="110" y="70" width="1190" height="1170" as="geometry" />
        </mxCell>
        <mxCell id="R4H8HQrNvtAMqRPQB2d6-38" style="edgeStyle=orthogonalEdgeStyle;rounded=0;orthogonalLoop=1;jettySize=auto;html=1;exitX=1;exitY=0.5;exitDx=0;exitDy=0;" edge="1" parent="R4H8HQrNvtAMqRPQB2d6-12" source="R4H8HQrNvtAMqRPQB2d6-14" target="R4H8HQrNvtAMqRPQB2d6-29">
          <mxGeometry relative="1" as="geometry" />
        </mxCell>
        <mxCell id="R4H8HQrNvtAMqRPQB2d6-40" style="edgeStyle=orthogonalEdgeStyle;rounded=0;orthogonalLoop=1;jettySize=auto;html=1;exitX=0.5;exitY=1;exitDx=0;exitDy=0;entryX=0.5;entryY=0;entryDx=0;entryDy=0;" edge="1" parent="R4H8HQrNvtAMqRPQB2d6-12" source="R4H8HQrNvtAMqRPQB2d6-14" target="R4H8HQrNvtAMqRPQB2d6-32">
          <mxGeometry relative="1" as="geometry" />
        </mxCell>
        <mxCell id="R4H8HQrNvtAMqRPQB2d6-14" value="&lt;font style=&quot;font-size: 20px;&quot;&gt;Work Master&lt;/font&gt;" style="swimlane;whiteSpace=wrap;html=1;fillColor=#fff2cc;strokeColor=#d6b656;startSize=50;" vertex="1" parent="R4H8HQrNvtAMqRPQB2d6-12">
          <mxGeometry x="70" y="110" width="670" height="330" as="geometry" />
        </mxCell>
        <mxCell id="R4H8HQrNvtAMqRPQB2d6-31" value="&lt;ul&gt;&lt;li&gt;&lt;font style=&quot;font-size: 24px;&quot;&gt;A master template used to create Work Orders.&lt;/font&gt;&lt;/li&gt;&lt;li&gt;&lt;font style=&quot;font-size: 24px;&quot;&gt;It contains a reference quantity and parameter set.&lt;br&gt;&lt;/font&gt;&lt;/li&gt;&lt;li&gt;&lt;font style=&quot;font-size: 24px;&quot;&gt;&lt;strong data-end=&quot;1157&quot; data-start=&quot;1145&quot;&gt;Scalable&lt;/strong&gt;: Opcenter EX PR can scale it based on the requested production quantity.&lt;br&gt;&lt;/font&gt;&lt;/li&gt;&lt;/ul&gt;" style="text;whiteSpace=wrap;html=1;" vertex="1" parent="R4H8HQrNvtAMqRPQB2d6-14">
          <mxGeometry x="20" y="50" width="530" height="160" as="geometry" />
        </mxCell>
        <mxCell id="R4H8HQrNvtAMqRPQB2d6-41" style="edgeStyle=orthogonalEdgeStyle;rounded=0;orthogonalLoop=1;jettySize=auto;html=1;exitX=0.5;exitY=1;exitDx=0;exitDy=0;entryX=0.5;entryY=0;entryDx=0;entryDy=0;" edge="1" parent="R4H8HQrNvtAMqRPQB2d6-12" source="R4H8HQrNvtAMqRPQB2d6-32" target="R4H8HQrNvtAMqRPQB2d6-34">
          <mxGeometry relative="1" as="geometry" />
        </mxCell>
        <mxCell id="R4H8HQrNvtAMqRPQB2d6-32" value="&lt;font style=&quot;font-size: 20px;&quot;&gt;Comparison Step&lt;/font&gt;" style="swimlane;whiteSpace=wrap;html=1;fillColor=#dae8fc;strokeColor=#6c8ebf;startSize=50;" vertex="1" parent="R4H8HQrNvtAMqRPQB2d6-12">
          <mxGeometry x="70" y="490" width="670" height="240" as="geometry" />
        </mxCell>
        <mxCell id="R4H8HQrNvtAMqRPQB2d6-33" value="&lt;ul style=&quot;font-size: 24px;&quot;&gt;&lt;li&gt;Opcenter compares the &lt;strong data-end=&quot;1317&quot; data-start=&quot;1284&quot;&gt;requested production quantity&lt;/strong&gt; to the &lt;strong data-end=&quot;1349&quot; data-start=&quot;1325&quot;&gt;Work Master quantity&lt;/strong&gt;&lt;br&gt;&lt;/li&gt;&lt;/ul&gt;" style="text;whiteSpace=wrap;html=1;" vertex="1" parent="R4H8HQrNvtAMqRPQB2d6-32">
          <mxGeometry x="20" y="50" width="530" height="160" as="geometry" />
        </mxCell>
        <mxCell id="R4H8HQrNvtAMqRPQB2d6-34" value="&lt;font style=&quot;font-size: 20px;&quot;&gt;Opcenter EX PR Scaling&lt;/font&gt;" style="swimlane;whiteSpace=wrap;html=1;fillColor=#dae8fc;strokeColor=#6c8ebf;startSize=50;" vertex="1" parent="R4H8HQrNvtAMqRPQB2d6-12">
          <mxGeometry x="70" y="800" width="670" height="340" as="geometry" />
        </mxCell>
        <mxCell id="R4H8HQrNvtAMqRPQB2d6-35" value="&lt;ul style=&quot;font-size: 24px;&quot;&gt;&lt;li&gt;Automatically scales (e.g., durations, material needs, equipment) and &lt;strong data-end=&quot;1495&quot; data-start=&quot;1472&quot;&gt;Quantity to Produce&lt;/strong&gt; proportionally.&lt;br&gt;&lt;/li&gt;&lt;li&gt;Enables reuse of process designs across different order sizes.&lt;br&gt;&lt;/li&gt;&lt;/ul&gt;" style="text;whiteSpace=wrap;html=1;" vertex="1" parent="R4H8HQrNvtAMqRPQB2d6-34">
          <mxGeometry x="40" y="150" width="530" height="180" as="geometry" />
        </mxCell>
        <mxCell id="R4H8HQrNvtAMqRPQB2d6-37" style="edgeStyle=orthogonalEdgeStyle;rounded=0;orthogonalLoop=1;jettySize=auto;html=1;exitX=0.5;exitY=1;exitDx=0;exitDy=0;" edge="1" parent="R4H8HQrNvtAMqRPQB2d6-34" source="R4H8HQrNvtAMqRPQB2d6-36" target="R4H8HQrNvtAMqRPQB2d6-35">
          <mxGeometry relative="1" as="geometry" />
        </mxCell>
        <mxCell id="R4H8HQrNvtAMqRPQB2d6-36" value="&lt;font style=&quot;font-size: 18px;&quot;&gt;Parameters&lt;/font&gt;" style="rounded=0;whiteSpace=wrap;html=1;fillColor=#ffe6cc;strokeColor=#d79b00;" vertex="1" parent="R4H8HQrNvtAMqRPQB2d6-34">
          <mxGeometry x="245" y="70" width="120" height="40" as="geometry" />
        </mxCell>
        <mxCell id="R4H8HQrNvtAMqRPQB2d6-29" value="&lt;font style=&quot;font-size: 24px;&quot;&gt;Requested Quantity vs. Work Master Quantity&lt;/font&gt;" style="text;whiteSpace=wrap;html=1;" vertex="1" parent="R4H8HQrNvtAMqRPQB2d6-12">
          <mxGeometry x="870" y="230" width="280" height="90" as="geometry" />
        </mxCell>
        <mxCell id="R4H8HQrNvtAMqRPQB2d6-42" value="&lt;font style=&quot;font-size: 20px;&quot;&gt;Opcenter APS&lt;/font&gt;" style="swimlane;whiteSpace=wrap;html=1;fillColor=#f8cecc;strokeColor=#b85450;startSize=50;" vertex="1" parent="1">
          <mxGeometry x="2040" y="2330" width="290" height="370" as="geometry" />
        </mxCell>
        <mxCell id="R4H8HQrNvtAMqRPQB2d6-43" value="&lt;ul&gt;&lt;li&gt;&lt;span style=&quot;background-color: initial;&quot;&gt;&lt;font face=&quot;Helvetica&quot; style=&quot;font-size: 23px;&quot;&gt;components of the Work Order&lt;/font&gt;&lt;/span&gt;&lt;/li&gt;&lt;/ul&gt;" style="text;whiteSpace=wrap;html=1;" vertex="1" parent="R4H8HQrNvtAMqRPQB2d6-42">
          <mxGeometry y="50" width="270" height="80" as="geometry" />
        </mxCell>
        <mxCell id="R4H8HQrNvtAMqRPQB2d6-44" style="edgeStyle=orthogonalEdgeStyle;rounded=0;orthogonalLoop=1;jettySize=auto;html=1;exitX=0.5;exitY=1;exitDx=0;exitDy=0;" edge="1" parent="R4H8HQrNvtAMqRPQB2d6-42" source="R4H8HQrNvtAMqRPQB2d6-45" target="R4H8HQrNvtAMqRPQB2d6-46">
          <mxGeometry relative="1" as="geometry" />
        </mxCell>
        <mxCell id="R4H8HQrNvtAMqRPQB2d6-45" value="&lt;font style=&quot;font-size: 18px;&quot;&gt;Parameters&lt;/font&gt;" style="rounded=0;whiteSpace=wrap;html=1;fillColor=#ffe6cc;strokeColor=#d79b00;" vertex="1" parent="R4H8HQrNvtAMqRPQB2d6-42">
          <mxGeometry x="75" y="140" width="120" height="40" as="geometry" />
        </mxCell>
        <mxCell id="R4H8HQrNvtAMqRPQB2d6-46" value="&lt;ul&gt;&lt;li&gt;&lt;font style=&quot;font-size: 20px;&quot;&gt;e.g., machine speed, temperature, material type&lt;/font&gt;&lt;br&gt;&lt;/li&gt;&lt;/ul&gt;" style="text;whiteSpace=wrap;html=1;" vertex="1" parent="R4H8HQrNvtAMqRPQB2d6-42">
          <mxGeometry x="7.5" y="250" width="255" height="90" as="geometry" />
        </mxCell>
      </root>
    </mxGraphModel>
  </diagram>
  <diagram id="fgTDapJ8daRNvf_dJaUS" name="Configure the Production Process">
    <mxGraphModel dx="1434" dy="-264" grid="1" gridSize="10" guides="1" tooltips="1" connect="1" arrows="1" fold="1" page="1" pageScale="1" pageWidth="850" pageHeight="1100" math="0" shadow="0">
      <root>
        <mxCell id="0" />
        <mxCell id="1" parent="0" />
        <mxCell id="c0UUVtrHT4H9UnfvibXm-1" value="&lt;div style=&quot;&quot;&gt;&lt;strong style=&quot;font-family: &amp;quot;Adobe Clean&amp;quot;, adobe-clean-ux, adobe-clean, &amp;quot;Source Sans Pro&amp;quot;, -apple-system, BlinkMacSystemFont, &amp;quot;Segoe UI&amp;quot;, Roboto, sans-serif, SimSun; color: rgb(34, 34, 34); text-align: start; background-color: rgb(248, 248, 248);&quot;&gt;&lt;font style=&quot;font-size: 22px;&quot;&gt;Configuring the Production Process&lt;/font&gt;&lt;/strong&gt;&lt;br&gt;&lt;/div&gt;" style="swimlane;whiteSpace=wrap;html=1;startSize=50;" parent="1" vertex="1">
          <mxGeometry x="30" y="1130" width="1720" height="1360" as="geometry" />
        </mxCell>
        <mxCell id="c0UUVtrHT4H9UnfvibXm-24" value="&lt;font style=&quot;font-size: 18px;&quot;&gt;Parameters&lt;/font&gt;" style="swimlane;whiteSpace=wrap;html=1;" parent="c0UUVtrHT4H9UnfvibXm-1" vertex="1">
          <mxGeometry x="60" y="200" width="1390" height="530" as="geometry" />
        </mxCell>
        <mxCell id="pUjkmXwrnlAI26aYhTX3-7" value="&lt;div style=&quot;font-family: &amp;quot;Adobe Clean&amp;quot;, adobe-clean-ux, adobe-clean, &amp;quot;Source Sans Pro&amp;quot;, -apple-system, BlinkMacSystemFont, &amp;quot;Segoe UI&amp;quot;, Roboto, sans-serif, SimSun;&quot;&gt;&lt;font style=&quot;font-size: 20px;&quot;&gt;Configure Parameters&lt;/font&gt;&lt;/div&gt;" style="swimlane;whiteSpace=wrap;html=1;" parent="c0UUVtrHT4H9UnfvibXm-24" vertex="1">
          <mxGeometry x="30" y="50" width="1320" height="440" as="geometry" />
        </mxCell>
        <mxCell id="pUjkmXwrnlAI26aYhTX3-8" value="&lt;div style=&quot;font-family: &amp;quot;Adobe Clean&amp;quot;, adobe-clean-ux, adobe-clean, &amp;quot;Source Sans Pro&amp;quot;, -apple-system, BlinkMacSystemFont, &amp;quot;Segoe UI&amp;quot;, Roboto, sans-serif, SimSun;&quot;&gt;&lt;font style=&quot;font-size: 20px;&quot;&gt;catalog&lt;/font&gt;&lt;/div&gt;" style="swimlane;whiteSpace=wrap;html=1;startSize=23;" parent="pUjkmXwrnlAI26aYhTX3-7" vertex="1">
          <mxGeometry x="30" y="90" width="380" height="190" as="geometry" />
        </mxCell>
        <mxCell id="pUjkmXwrnlAI26aYhTX3-10" value="&lt;font style=&quot;font-size: 20px;&quot;&gt;A catalog of reusable parameters is available to streamline the design process&lt;/font&gt;" style="text;whiteSpace=wrap;html=1;" parent="pUjkmXwrnlAI26aYhTX3-8" vertex="1">
          <mxGeometry x="10" y="60" width="360" height="90" as="geometry" />
        </mxCell>
        <mxCell id="pUjkmXwrnlAI26aYhTX3-11" value="&lt;div style=&quot;font-family: &amp;quot;Adobe Clean&amp;quot;, adobe-clean-ux, adobe-clean, &amp;quot;Source Sans Pro&amp;quot;, -apple-system, BlinkMacSystemFont, &amp;quot;Segoe UI&amp;quot;, Roboto, sans-serif, SimSun;&quot;&gt;&lt;div style=&quot;&quot;&gt;&lt;div style=&quot;&quot;&gt;&lt;font style=&quot;font-size: 20px;&quot;&gt;Parameter Binding&lt;/font&gt;&lt;/div&gt;&lt;/div&gt;&lt;/div&gt;" style="swimlane;whiteSpace=wrap;html=1;" parent="pUjkmXwrnlAI26aYhTX3-7" vertex="1">
          <mxGeometry x="930" y="80" width="380" height="260" as="geometry" />
        </mxCell>
        <mxCell id="pUjkmXwrnlAI26aYhTX3-12" value="&lt;div style=&quot;font-family: &amp;quot;Adobe Clean&amp;quot;, adobe-clean-ux, adobe-clean, &amp;quot;Source Sans Pro&amp;quot;, -apple-system, BlinkMacSystemFont, &amp;quot;Segoe UI&amp;quot;, Roboto, sans-serif, SimSun; font-size: 20px;&quot;&gt;&lt;font style=&quot;font-size: 20px;&quot;&gt;Generic binding allows for &lt;b style=&quot;&quot;&gt;automatic initialization of parameters&lt;/b&gt; based on naming conventions&lt;/font&gt;&lt;/div&gt;&lt;div style=&quot;font-family: &amp;quot;Adobe Clean&amp;quot;, adobe-clean-ux, adobe-clean, &amp;quot;Source Sans Pro&amp;quot;, -apple-system, BlinkMacSystemFont, &amp;quot;Segoe UI&amp;quot;, Roboto, sans-serif, SimSun; font-size: 20px;&quot;&gt;&lt;font style=&quot;font-size: 20px;&quot;&gt;&lt;br&gt;&lt;/font&gt;&lt;/div&gt;&lt;div style=&quot;font-family: &amp;quot;Adobe Clean&amp;quot;, adobe-clean-ux, adobe-clean, &amp;quot;Source Sans Pro&amp;quot;, -apple-system, BlinkMacSystemFont, &amp;quot;Segoe UI&amp;quot;, Roboto, sans-serif, SimSun; font-size: 20px;&quot;&gt;&lt;font style=&quot;font-size: 20px;&quot;&gt;&lt;div style=&quot;&quot;&gt;Specific binding links parameters directly to &lt;b style=&quot;&quot;&gt;Work Order Operations&lt;/b&gt;&lt;/div&gt;&lt;/font&gt;&lt;/div&gt;" style="text;whiteSpace=wrap;html=1;" parent="pUjkmXwrnlAI26aYhTX3-11" vertex="1">
          <mxGeometry x="10" y="60" width="360" height="180" as="geometry" />
        </mxCell>
        <mxCell id="pUjkmXwrnlAI26aYhTX3-4" value="&lt;font style=&quot;font-size: 18px;&quot;&gt;step flows&lt;/font&gt;" style="swimlane;whiteSpace=wrap;html=1;" parent="c0UUVtrHT4H9UnfvibXm-1" vertex="1">
          <mxGeometry x="150" y="890" width="290" height="130" as="geometry" />
        </mxCell>
        <mxCell id="pUjkmXwrnlAI26aYhTX3-5" value="&lt;div style=&quot;font-family: &amp;quot;Adobe Clean&amp;quot;, adobe-clean-ux, adobe-clean, &amp;quot;Source Sans Pro&amp;quot;, -apple-system, BlinkMacSystemFont, &amp;quot;Segoe UI&amp;quot;, Roboto, sans-serif, SimSun;&quot;&gt;&lt;font style=&quot;font-size: 18px;&quot;&gt;operations&lt;/font&gt;&lt;/div&gt;" style="swimlane;whiteSpace=wrap;html=1;" parent="c0UUVtrHT4H9UnfvibXm-1" vertex="1">
          <mxGeometry x="840" y="840" width="290" height="130" as="geometry" />
        </mxCell>
        <mxCell id="pUjkmXwrnlAI26aYhTX3-6" value="&lt;font style=&quot;font-size: 18px;&quot;&gt;Key workflows include configuring parameters, managing step flows, and defining operations&lt;/font&gt;" style="text;whiteSpace=wrap;html=1;" parent="c0UUVtrHT4H9UnfvibXm-1" vertex="1">
          <mxGeometry x="20" y="80" width="530" height="40" as="geometry" />
        </mxCell>
      </root>
    </mxGraphModel>
  </diagram>
  <diagram id="6xjNB9Fvo0XkzVt5YOil" name="Page-4">
    <mxGraphModel dx="1434" dy="836" grid="1" gridSize="10" guides="1" tooltips="1" connect="1" arrows="1" fold="1" page="1" pageScale="1" pageWidth="850" pageHeight="1100" math="0" shadow="0">
      <root>
        <mxCell id="0" />
        <mxCell id="1" parent="0" />
      </root>
    </mxGraphModel>
  </diagram>
</mxfile>
